<svg width="838" height="452" viewBox="0 0 838 452" fill="none" xmlns="http://www.w3.org/2000/svg">
<path fill-rule="evenodd" clip-rule="evenodd" d="M450.646 232.587L489.695 254.583L508.036 363.379L555.132 377.213L537.8 428.152L464.315 427.267L450.646 232.587Z" fill="#CA3C27"/>
<path fill-rule="evenodd" clip-rule="evenodd" d="M452.771 233.118L489.688 254.404L493.948 301.144L472.117 280.656L452.771 233.118Z" fill="#EB6337"/>
<path fill-rule="evenodd" clip-rule="evenodd" d="M471.937 427.353L251.135 427.266L278.349 359.24L298.813 278.768L328.93 237.998L453.453 234.181L474.138 281.219L465.343 334.183L471.937 427.353Z" fill="#2F110F"/>
<path fill-rule="evenodd" clip-rule="evenodd" d="M368.29 236.31L448.359 239.051L466.315 281.965L455.847 330.658L456.924 409.119L410.062 426.999L261.08 425.46L285.103 363.258L306.672 279.234L338.114 232.228L368.29 236.31Z" fill="#CA3C27"/>
<path fill-rule="evenodd" clip-rule="evenodd" d="M342.46 294.489L314.682 418.719L410.41 425.222H466.025L459.629 334.178L468.125 279.853L450.022 231.426L401.565 239.143L367.22 237.19L343.968 260.428L342.46 294.485V294.489Z" fill="#771213"/>
<path fill-rule="evenodd" clip-rule="evenodd" d="M507.685 365.862L481.709 390.96L483.043 428.477L537.976 427.977L554.07 370.119L507.685 365.862Z" fill="#771213"/>
<path fill-rule="evenodd" clip-rule="evenodd" d="M193.646 320.039L217.604 427.002L195.539 429.485L135.87 428.331L62.1246 330.876L50.0605 201.761L100.077 148.005L180.568 151.689L217.934 210.441L193.646 320.039Z" fill="#2F110F"/>
<path fill-rule="evenodd" clip-rule="evenodd" d="M186.252 319.576L205.681 400.318L209.615 422.309L192.759 429.779L144.182 428.743L68.7395 327.581L56.5059 203.966L102.68 154.352L176.949 159.786L209.803 213.767L186.252 319.576Z" fill="#C93C27"/>
<path fill-rule="evenodd" clip-rule="evenodd" d="M186.238 319.576L205.982 401.386L197.642 418.854L147.538 330.67L163.843 223.885L130.311 156.372L176.934 159.786L209.788 213.767L186.238 319.576Z" fill="#AF3225"/>
<path fill-rule="evenodd" clip-rule="evenodd" d="M143.636 428.29L68.7395 327.581L56.5059 203.961L102.68 154.352L85.3797 211.971L88.8829 328.195L162.024 429.66L143.636 428.29Z" fill="#EB6435"/>
<path fill-rule="evenodd" clip-rule="evenodd" d="M176.949 159.786L200.284 198.128L163.858 223.885L85.6371 219.587L64.1777 195.708L102.681 154.352L176.949 159.786Z" fill="#401714"/>
<path fill-rule="evenodd" clip-rule="evenodd" d="M197.281 269.975L204.893 235.836L164.074 264.412L86.8987 257.58L60.1387 240.95L65.3843 293.868L88.3247 300.439L164.45 295.013L197.281 269.975Z" fill="#401714"/>
<path fill-rule="evenodd" clip-rule="evenodd" d="M186.253 319.576L191.393 296.356L155.192 330.615L96.775 339.835L68.7402 327.581L96.0918 364.855L116.524 368.869L164.597 349.847L188.298 327.792L186.253 319.576Z" fill="#401714"/>
<path fill-rule="evenodd" clip-rule="evenodd" d="M136.498 418.968L113.021 387.299L135.251 393.05L166.84 376.374L194.668 354.195L199.973 376.425L185.337 398.173L152.941 418.446L136.498 418.968Z" fill="#401714"/>
<path fill-rule="evenodd" clip-rule="evenodd" d="M156.652 429.812L195.11 413.965L205.972 400.209L210.47 422.411L192.505 429.752L156.652 429.812Z" fill="#401714"/>
<path fill-rule="evenodd" clip-rule="evenodd" d="M424.787 37.4202L364.618 40.6004L277.602 24.2777L248.953 31.8433L269.207 81.824L257.606 98.6232L253.227 134.206L278.634 157.59L258.752 194.905L276.525 190.157L267.739 214.321L351.541 237.155L400.466 240.949L461.277 233.008L543.332 204.853L532.909 181.35L550.966 184.869L528.571 149.007L550.92 124.523L542.382 87.4145L462.428 5.51725C451.813 3.79426 446.214 2.03002 433.728 0" fill="#2E100D"/>
<path fill-rule="evenodd" clip-rule="evenodd" d="M337.977 51.654C265.4 -29.2489 287.345 164.396 288.46 154.731L291.174 155.368L292.77 153.086C310.73 127.411 357.611 77.4164 337.981 51.6494" fill="#2E100D"/>
<path fill-rule="evenodd" clip-rule="evenodd" d="M462.078 47.3921C536.305 31.4452 522.659 178.39 518.56 146.831L515.896 147.656L514.149 145.488C494.469 121.105 444.264 74.4468 462.078 47.3967" fill="#2E100D"/>
<path fill-rule="evenodd" clip-rule="evenodd" d="M365.423 47.4102L343.689 52.1439L321.17 94.0273L311.367 84.3492L314.104 101.245L298.638 105.91L311.802 111.615L273.258 183.962L288.311 179.939L277.38 210L351.043 231.418L406.356 233.645L461.389 227.628L533.407 201.206L520.439 171.965L535.732 174.949L492.313 105.415L505.051 98.8206L489.3 95.2279L490.873 78.1813L481.753 88.5101L461.926 51.3878L458.519 57.07L433.139 45.0869L365.423 47.4102Z" fill="#CA3C27"/>
<path fill-rule="evenodd" clip-rule="evenodd" d="M445.044 172.74L486.344 150.281L483.308 122.017L500.811 182.033L477.875 221.584L461.395 227.628L399.828 236.788L351.049 231.418L322.047 188.499L341.264 130.554L358.542 165.921L377.782 175.865L396.591 175.952L445.044 172.74Z" fill="#771213"/>
<path fill-rule="evenodd" clip-rule="evenodd" d="M320.751 93.6052L311.374 84.3486L314.111 101.244L298.645 105.909L311.713 111.509L272.898 184.14L288.319 179.938L277.387 209.999L311.099 219.801L288.36 202.113L325.602 85.6775L320.751 93.6052Z" fill="#EB6337"/>
<path fill-rule="evenodd" clip-rule="evenodd" d="M419.23 156.784L395.913 175.737L377.792 175.865L368.039 197.49L392.791 232.266L400.705 236.66L440.685 230.621L476.005 202.123L476.927 177.923L463.914 168.144L441.89 156.005L419.23 156.784Z" fill="#FDE6D5"/>
<path fill-rule="evenodd" clip-rule="evenodd" d="M418.12 219.183L393.185 191.908L368.039 197.494L392.791 232.266L400.705 236.66L440.685 230.621L476.005 202.118L476.579 187.009L475.684 186.647L471.961 194.131L470.475 199.483L451.387 216.974L418.12 219.183Z" fill="#EEBC92"/>
<path fill-rule="evenodd" clip-rule="evenodd" d="M415.376 115.454L416.04 86.0854L393.031 83.0977L395.021 112.416L415.376 115.454Z" fill="#EEBC92"/>
<path fill-rule="evenodd" clip-rule="evenodd" d="M376.859 99.847L387.722 88.3359L389.51 112.394L379.987 111.798L376.859 99.847Z" fill="#EEBC92"/>
<path fill-rule="evenodd" clip-rule="evenodd" d="M341.974 73.6395L343.707 52.1433L279.764 33.7402L259.438 38.4922L280.246 84.2662L266.26 100.488L280.333 132.615L264.252 115.995L261.258 132.107L283.543 152.613L304.864 124.665L286.142 109.121L297.083 87.7122L286.445 54.8561L325.613 85.6776L341.974 73.6395Z" fill="#FDE6D5"/>
<path fill-rule="evenodd" clip-rule="evenodd" d="M326.033 76.9664L341.967 73.6395L325.606 85.6776L286.443 54.8516L326.033 76.9664V76.9664ZM280.326 132.611L279.391 103.302L292.216 87.8909L286.443 54.8516L297.076 87.7122L286.136 109.117L304.862 124.665L283.54 152.609L280.331 132.611H280.326Z" fill="#EEBC92"/>
<path fill-rule="evenodd" clip-rule="evenodd" d="M343.692 52.1433L365.427 47.4096L279.75 33.7402L343.692 52.1433Z" fill="#771213"/>
<path fill-rule="evenodd" clip-rule="evenodd" d="M449.418 162.425L469.387 155.423L473.055 150.529L462.119 138.134L449.725 141.777L442.998 157.146L449.418 162.425Z" fill="#2E100D"/>
<path fill-rule="evenodd" clip-rule="evenodd" d="M459.814 142.445L449.933 145.836L446.943 156.486L451.863 161.572L464.84 157.022L466.798 150.506L459.814 142.445Z" fill="#771213"/>
<path fill-rule="evenodd" clip-rule="evenodd" d="M457.772 145.415L450.459 147.541L448.35 154.53L453.714 159.607L460.79 157.833L463.064 150.809L457.772 145.415Z" fill="#2E100D"/>
<path fill-rule="evenodd" clip-rule="evenodd" d="M454.081 143.325L450.376 144.512L449.17 148.755L452.224 151.642L456.245 150.634L457.538 146.638L454.081 143.325Z" fill="#FDE6D5"/>
<path fill-rule="evenodd" clip-rule="evenodd" d="M449.714 141.68L443.492 158.218L439.076 152.801L444.803 136.804L465.217 130.966L478.693 145.249L473.044 150.528L462.874 139.003L449.714 141.68Z" fill="#FDE6D5"/>
<path fill-rule="evenodd" clip-rule="evenodd" d="M377.039 153.765L391.157 141.236L405.418 145.48L413.075 161.042L401.263 165.587L379.795 157.059L377.039 153.765Z" fill="#2E100D"/>
<path fill-rule="evenodd" clip-rule="evenodd" d="M325.45 193.535L351.046 231.418L311.094 219.801L299.805 191.092L310.892 177.638L300.057 177.826L341.261 130.554L325.45 193.535Z" fill="#FDE6D5"/>
<path fill-rule="evenodd" clip-rule="evenodd" d="M419.219 156.783L419.994 142.747L427.087 142.505L434.181 142.262L441.719 155.986L419.219 156.783Z" fill="#EB6337"/>
<path fill-rule="evenodd" clip-rule="evenodd" d="M392.167 144.58L403.919 147.934L407.046 158.598L399.714 164.899L386.032 159.514L383.391 152.7L392.167 144.58Z" fill="#771213"/>
<path fill-rule="evenodd" clip-rule="evenodd" d="M393.484 147.01L401.215 149.214L403.274 156.234L397.427 161.252L389.944 159.405L387.711 152.353L393.484 147.01Z" fill="#2E100D"/>
<path fill-rule="evenodd" clip-rule="evenodd" d="M392.504 145.352L396.415 146.575L397.584 150.837L394.26 153.696L390.005 152.642L388.734 148.633L392.504 145.352Z" fill="#FDE6D5"/>
<path fill-rule="evenodd" clip-rule="evenodd" d="M429.122 73.4299L370.086 47.255L399.964 46.1369L429.599 45.2158L429.122 73.4299Z" fill="#EB6337"/>
<path fill-rule="evenodd" clip-rule="evenodd" d="M351.046 231.417L341.563 217.381L318.192 207.923L309.154 191.307L310.892 177.638L299.805 191.092L311.094 219.801L351.046 231.417Z" fill="#EEBC92"/>
<path fill-rule="evenodd" clip-rule="evenodd" d="M393.031 83.0977L416.036 86.0854L415.421 113.209L404.829 109.396L393.031 83.0977Z" fill="#FDE6D5"/>
<path fill-rule="evenodd" clip-rule="evenodd" d="M376.859 99.847L387.727 88.3359L384.902 107.976L376.859 99.847Z" fill="#FDE6D5"/>
<path fill-rule="evenodd" clip-rule="evenodd" d="M477.334 80.2208L481.763 88.5104L490.884 78.1816L489.311 95.2283L505.061 98.8209L492.323 105.415L535.742 174.949L520.45 171.966L533.417 201.206L500.458 213.299L521.926 194.094L477.334 80.2208Z" fill="#EB6337"/>
<path fill-rule="evenodd" clip-rule="evenodd" d="M434.84 115.477L428.021 84.9259L450.155 79.5645L453.782 106.642L434.84 115.477Z" fill="#EEBC92"/>
<path fill-rule="evenodd" clip-rule="evenodd" d="M468.578 97.4188L455.67 88.2539L458.627 112.197L467.849 109.755L468.578 97.4188Z" fill="#EEBC92"/>
<path fill-rule="evenodd" clip-rule="evenodd" d="M458.523 57.0654L433.139 45.0869L439.09 9.7334L458.523 57.0654Z" fill="#771213"/>
<path fill-rule="evenodd" clip-rule="evenodd" d="M500.801 182.033L477.865 221.579L510.073 208.231L521.178 173.656L514.231 165.174L525.053 164.62L483.358 121.778L500.801 182.033Z" fill="#FDE6D5"/>
<path fill-rule="evenodd" clip-rule="evenodd" d="M477.865 221.578L486.362 206.923L503.782 198.441L512.567 174.837L514.231 165.173L521.183 173.66L509.509 209.971L477.865 221.578Z" fill="#EEBC92"/>
<path fill-rule="evenodd" clip-rule="evenodd" d="M450.159 79.5596L428.021 84.9256L433.932 111.403L443.575 105.597L450.159 79.5596Z" fill="#FDE6D5"/>
<path fill-rule="evenodd" clip-rule="evenodd" d="M468.578 97.4188L455.67 88.2539L462.282 106.964L468.578 97.4188Z" fill="#FDE6D5"/>
<path fill-rule="evenodd" clip-rule="evenodd" d="M458.521 57.0654L453.789 45.536L439.084 9.7334L459.691 13.0786L521.927 75.9633L536.995 91.1862L525.16 124.203L540.062 106.524L544.157 122.393L523.335 144.379L500.142 117.961L517.755 101.167L505.365 80.5595L467.105 45.009L477.321 80.2204L458.521 57.0654Z" fill="#FDE6D5"/>
<path fill-rule="evenodd" clip-rule="evenodd" d="M468.177 63.0727L458.529 57.0652L477.334 80.2156L467.113 45.0088L468.177 63.0727ZM518.694 123.666L524.09 94.9023L510.238 80.4081L467.113 45.0134L505.378 80.5639L517.763 101.171L500.15 117.966L523.343 144.383L518.698 123.671L518.694 123.666Z" fill="#EEBC92"/>
<path fill-rule="evenodd" clip-rule="evenodd" d="M406.053 146.761L413.366 161.631L419.02 156.962L409.689 140.534L390.756 133.72L371.172 148.42L377.041 153.763L391.159 141.235L406.053 146.761Z" fill="#FDE6D5"/>
<path fill-rule="evenodd" clip-rule="evenodd" d="M447.625 166.082L432.635 164.01L420.75 156.733L441.888 156.005L462.444 162.989L447.625 166.082Z" fill="#EEBC92"/>
<path fill-rule="evenodd" clip-rule="evenodd" d="M447.6 165.627L432.62 164.01L430.767 168.015L445.449 179.81L445.848 187.784L443.753 189.859L424.696 195.523L399.899 188.998L397.069 182.482L394.625 183.068L393.172 191.908L398.757 192.086L426.131 201.118L448.618 194.236L453.208 195.422L465.02 197.191L468.472 193.379L471.948 194.13L475.671 186.647L473.324 184.69L466.597 192.073L453.102 189.539L450.865 187.614L450.713 179.631L464.556 166.856L462.429 162.983L447.6 165.627Z" fill="#2E100D"/>
<path d="M506.965 367.635L487.629 255.273L451.084 233.562L457.742 231.165L493.682 251.122L511.106 362.548L548.499 366.452L546.844 371.42L506.965 367.635Z" fill="#2E100D"/>
<path d="M837.738 426.376H0V451.398H837.738V426.376Z" fill="#1D2939"/>
<path fill-rule="evenodd" clip-rule="evenodd" d="M422.946 106.405L424.244 127.576L434.038 127.323L432.529 105.873L489.397 103.788L496.958 170.444L470.514 173.102L463.769 167.961L486.902 165.119L481.872 112.852L441.168 114.626L441.686 156.014L435.945 156.193L434.171 134.151L424.542 134.316L425.294 156.591L419.039 156.903L415.843 116.014L363.167 116.779L362.534 163.172L408.612 165.463L400.638 171.92L354.074 170.916L354.235 107.372L422.946 106.405Z" fill="#2E100D"/>
<path d="M391.757 417.124H544.233V426.348H391.757C390.478 426.348 389.441 425.313 389.441 424.034V419.438C389.441 418.16 390.478 417.124 391.757 417.124V417.124Z" fill="#999999"/>
<path d="M544.213 417.124H736.458V424.52C736.458 425.528 735.637 426.348 734.628 426.348H544.213V417.124Z" fill="#999999"/>
<path d="M521.894 419.896H517.951C516.948 419.896 516.135 420.709 516.135 421.711C516.135 422.713 516.948 423.526 517.951 423.526H521.894C522.897 423.526 523.71 422.713 523.71 421.711C523.71 420.709 522.897 419.896 521.894 419.896Z" fill="#515151"/>
<path d="M507.183 419.896H503.24C502.237 419.896 501.424 420.709 501.424 421.711C501.424 422.713 502.237 423.526 503.24 423.526H507.183C508.186 423.526 508.999 422.713 508.999 421.711C508.999 420.709 508.186 419.896 507.183 419.896Z" fill="#515151"/>
<path d="M391.757 417.097C390.478 417.097 389.441 418.132 389.441 419.411V421.569C389.441 420.291 390.478 419.255 391.757 419.255H544.233V417.097H391.757Z" fill="#B5B5B5"/>
<path d="M733.517 415.704C734.773 415.704 736.02 416.323 736.754 417.345C737.13 417.849 737.378 418.444 737.478 419.063C737.538 419.356 737.534 419.732 737.534 419.925V423.38C737.543 424.622 736.924 425.882 735.906 426.615C735.406 426.991 734.81 427.247 734.191 427.348C734.035 427.376 733.879 427.394 733.723 427.398L733.498 427.408H392.24C390.983 427.408 389.736 426.789 389.002 425.767C388.626 425.263 388.379 424.667 388.278 424.049C388.218 423.755 388.223 423.38 388.223 423.187V419.732C388.214 418.49 388.833 417.23 389.851 416.497C390.35 416.121 390.946 415.864 391.565 415.764C391.721 415.736 391.877 415.718 392.033 415.713L392.258 415.704H733.517V417.835H392.139C392.065 417.84 391.992 417.853 391.919 417.867C391.63 417.913 391.35 418.032 391.116 418.211C390.635 418.564 390.35 419.136 390.35 419.737V422.504C390.355 422.954 390.337 423.494 390.378 423.714C390.424 424.003 390.538 424.282 390.717 424.516C391.066 425.002 391.643 425.286 392.235 425.291H733.613C733.686 425.286 733.76 425.272 733.833 425.258C734.122 425.213 734.402 425.094 734.636 424.915C735.117 424.562 735.401 423.989 735.401 423.389V420.621C735.397 420.172 735.415 419.631 735.374 419.411C735.328 419.123 735.213 418.843 735.035 418.609C734.686 418.124 734.108 417.84 733.517 417.835V415.704Z" fill="#2E100D"/>
<path d="M737.204 422.091H546.014C539.365 422.091 534.592 415.698 536.481 409.329L576.378 274.876C577.63 270.655 581.509 267.764 585.911 267.764H777.101C783.75 267.764 788.523 274.156 786.634 280.526L746.737 414.979C745.485 419.199 741.606 422.091 737.204 422.091V422.091Z" fill="#D6D4D4"/>
<path d="M739.78 419.846H548.59C541.942 419.846 537.668 414.879 541.428 404.408L581.325 269.955C581.454 269.519 581.619 269.098 581.802 268.694C579.225 269.858 577.198 272.09 576.355 274.922L536.458 409.375C534.568 415.745 539.342 422.137 545.991 422.137H737.181C741.129 422.137 745.003 419.8 746.732 415.131C744.898 419.035 741.225 419.846 739.78 419.846V419.846Z" fill="#999999"/>
<path d="M737.207 420.492C738.794 420.483 740.371 420.025 741.71 419.173C743.049 418.32 744.122 417.069 744.787 415.631C744.86 415.447 744.952 415.273 745.016 415.085L745.208 414.522L745.612 413.165L746.419 410.448L748.028 405.018L754.475 383.297L767.369 339.851L780.263 296.405L783.487 285.544L785.096 280.114C785.555 278.57 785.555 276.948 785.128 275.422C784.716 273.891 783.79 272.516 782.62 271.453C781.442 270.386 779.938 269.721 778.379 269.474C778.186 269.428 777.984 269.419 777.787 269.41L777.191 269.373C776.751 269.359 776.256 269.373 775.793 269.368H585.919C584.332 269.378 582.755 269.836 581.416 270.688C580.077 271.54 579.004 272.791 578.339 274.23C578.266 274.414 578.174 274.588 578.11 274.776L577.917 275.339L577.514 276.696L576.707 279.413L575.097 284.843L568.65 306.564L555.756 350.01L542.862 393.456L539.639 404.316L538.029 409.747C537.571 411.291 537.571 412.913 537.997 414.439C538.41 415.97 539.336 417.344 540.505 418.407C541.684 419.475 543.188 420.14 544.747 420.387C544.939 420.433 545.141 420.442 545.338 420.451L545.934 420.488C546.375 420.502 546.87 420.488 547.333 420.492H737.207V423.686H547.333C546.852 423.686 546.402 423.691 545.898 423.682L545.082 423.636C544.806 423.622 544.536 423.604 544.265 423.544C542.101 423.205 540.015 422.266 538.382 420.795C536.764 419.329 535.507 417.436 534.925 415.314C534.324 413.206 534.343 410.911 534.966 408.835L536.576 403.405L539.799 392.544L552.693 349.098L565.587 305.652L572.034 283.931L573.644 278.501L574.451 275.784L574.854 274.427L575.12 273.648C575.212 273.392 575.331 273.144 575.436 272.892C576.354 270.903 577.839 269.176 579.692 267.994C581.54 266.811 583.727 266.174 585.919 266.165H775.793C776.274 266.165 776.723 266.161 777.228 266.17L778.044 266.216C778.319 266.229 778.59 266.248 778.86 266.307C781.025 266.646 783.111 267.586 784.743 269.057C786.362 270.523 787.618 272.416 788.201 274.537C788.801 276.645 788.783 278.941 788.159 281.017L786.55 286.447L783.326 297.307L770.432 340.754L757.538 384.2L751.091 405.92L749.482 411.351L748.675 414.068L748.271 415.424L748.006 416.203C747.914 416.46 747.795 416.707 747.689 416.959C746.772 418.948 745.286 420.676 743.434 421.858C741.586 423.04 739.399 423.677 737.207 423.686V420.492V420.492Z" fill="#310401"/>
<path d="M770.179 288.189H592.671C589.819 288.189 587.783 285.43 588.622 282.708L590.562 276.43C591.112 274.657 592.754 273.447 594.611 273.447H772.118C774.97 273.447 777.006 276.206 776.167 278.928L774.227 285.206C773.677 286.979 772.036 288.189 770.179 288.189Z" fill="#E5E5E5"/>
<path d="M447.698 335.423C447.698 335.423 440.604 329.635 445.332 322.427C450.059 315.219 453.251 314.037 449.587 302.814C449.587 302.814 460.404 307.745 458.129 319.417C456.882 325.814 448.376 327.39 447.698 335.428V335.423Z" fill="#FDE6D5"/>
<path d="M433.478 324.289C433.478 324.289 427.65 319.532 431.534 313.612C435.418 307.691 438.041 306.72 435.033 297.5C435.033 297.5 443.919 301.551 442.048 311.137C441.021 316.393 434.037 317.69 433.478 324.289V324.289Z" fill="#FDE6D5"/>
<path d="M429.728 427.28H467.442C475.76 427.28 482.505 420.539 482.505 412.227V344.649H414.66V412.227C414.66 420.539 421.405 427.28 429.723 427.28H429.728Z" fill="#D8D8D8"/>
<path d="M428.406 427.278H468.61C478.973 427.278 483.921 418.998 482.509 408.522L479.657 414.539C477.754 418.558 473.7 421.12 469.252 421.12H428.548C423.798 421.12 419.469 418.411 417.392 414.141L414.659 408.522C413.797 419.782 418.034 427.278 428.402 427.278H428.406Z" fill="#ADACAC"/>
<path d="M429.46 428.873C427.36 428.868 425.255 428.461 423.306 427.668C421.357 426.88 419.564 425.706 418.056 424.245C416.547 422.783 415.318 421.028 414.47 419.103C413.617 417.179 413.15 415.089 413.09 412.99C413.053 412.445 413.072 412 413.067 411.519V343.044H484.108V412.317C484.108 412.651 484.08 413.05 484.062 413.416C484.053 414.163 483.906 414.897 483.796 415.634C483.732 416.001 483.622 416.358 483.534 416.72C483.443 417.082 483.351 417.444 483.209 417.793L482.824 418.842L482.342 419.85C482.26 420.015 482.186 420.189 482.09 420.35L481.801 420.831C481.604 421.147 481.425 421.477 481.205 421.779C480.352 423.003 479.33 424.103 478.197 425.074C475.891 426.962 473.08 428.268 470.118 428.671C469.384 428.813 468.632 428.813 467.889 428.859C467.183 428.878 466.532 428.859 465.849 428.868H429.464V425.674H465.849C466.514 425.674 467.215 425.684 467.853 425.665C468.453 425.624 469.059 425.633 469.65 425.514C472.034 425.193 474.29 424.135 476.152 422.623C477.065 421.834 477.89 420.954 478.578 419.965C478.757 419.722 478.894 419.456 479.055 419.199L479.288 418.815C479.362 418.686 479.421 418.544 479.486 418.411L479.875 417.6L480.183 416.752C480.297 416.473 480.371 416.184 480.444 415.891C480.513 415.598 480.609 415.314 480.659 415.016C480.737 414.42 480.87 413.833 480.87 413.229C480.88 412.922 480.912 412.647 480.912 412.307V346.229H416.263V411.51C416.263 411.978 416.254 412.482 416.286 412.885C416.364 416.276 417.836 419.589 420.28 421.94C422.71 424.313 426.066 425.67 429.464 425.665V428.859L429.46 428.873Z" fill="#310401"/>
<path d="M396.598 361.008H414.659V373.041H403.554C401.275 373.041 399.427 374.888 399.427 377.165V389.382C399.427 391.66 401.275 393.506 403.554 393.506H414.659V404.642H396.598C390.788 404.642 386.074 399.936 386.074 394.125V371.525C386.074 365.719 390.783 361.008 396.598 361.008V361.008Z" fill="#D8D8D8"/>
<path d="M399.446 375.911V386.423C399.382 386.13 398.085 383.591 398.085 383.275L397.988 373.294C398.03 370.169 401.189 369.17 403.468 369.17L406.054 369.216C408.333 369.257 410.217 367.447 410.263 365.165L410.332 361.87L413.409 361.948L413.514 371.782H403.573C401.294 371.782 399.446 373.629 399.446 375.906V375.911Z" fill="#ADACAC"/>
<path d="M395.024 399.039L403.406 398.929C405.304 398.906 406.891 397.476 407.115 395.593L407.335 393.71L413.439 393.737V403.388H397.183C391.374 403.388 386.66 398.681 386.66 392.871V389.993C387.375 395.103 389.714 399.039 395.024 399.039V399.039Z" fill="#ADACAC"/>
<path d="M396.596 362.762C393.978 362.753 391.419 363.972 389.741 365.975C388.902 366.974 388.301 368.165 387.976 369.421L387.852 369.893L387.779 370.374C387.714 370.695 387.701 371.02 387.687 371.345C387.659 371.648 387.668 372.056 387.668 372.436V394.303C387.691 394.629 387.696 394.954 387.728 395.279C387.788 395.6 387.811 395.925 387.893 396.242C388.182 397.511 388.751 398.712 389.549 399.738C391.126 401.828 393.675 403.097 396.28 403.179C396.578 403.207 397 403.193 397.376 403.198H413.057V395.256H403.543C403.204 395.247 402.86 395.224 402.525 395.16C401.172 394.917 399.925 394.17 399.072 393.098C398.646 392.567 398.311 391.952 398.105 391.297C398.004 390.972 397.921 390.637 397.88 390.294C397.848 390.124 397.843 389.955 397.834 389.785L397.825 389.528V377.316L397.834 377.06C397.843 376.89 397.848 376.72 397.88 376.551C397.921 376.212 398.004 375.877 398.105 375.547C398.311 374.892 398.646 374.283 399.072 373.746C399.925 372.679 401.172 371.927 402.525 371.684C402.864 371.62 403.204 371.597 403.543 371.588H404.286H405.767H413.057V362.749H396.596V359.555H416.253V374.782H403.547C403.396 374.791 403.245 374.796 403.094 374.828C402.502 374.933 401.952 375.263 401.571 375.74C401.383 375.978 401.232 376.244 401.145 376.533C401.104 376.679 401.062 376.821 401.048 376.973C401.03 377.046 401.035 377.124 401.03 377.197L401.021 377.312V389.524L401.03 389.638C401.035 389.716 401.03 389.79 401.048 389.863C401.067 390.014 401.104 390.161 401.145 390.303C401.236 390.592 401.383 390.857 401.571 391.096C401.952 391.572 402.502 391.898 403.094 392.007C403.24 392.035 403.392 392.044 403.547 392.053H404.286H405.767H416.253V406.378H397.376C396.981 406.378 396.637 406.387 396.17 406.36C392.634 406.254 389.163 404.508 387.027 401.686C385.944 400.288 385.169 398.652 384.78 396.929C384.67 396.498 384.633 396.058 384.56 395.623C384.514 395.183 384.505 394.743 384.482 394.303V391.998V373.582V372.431C384.482 372.042 384.473 371.689 384.505 371.222C384.523 370.782 384.546 370.342 384.624 369.902L384.725 369.247L384.885 368.605C385.335 366.896 386.155 365.278 387.288 363.926C388.425 362.575 389.856 361.47 391.461 360.719C393.061 359.963 394.831 359.568 396.596 359.568V362.762V362.762Z" fill="#310401"/>
<path d="M445.834 414.687H463.4C470.866 414.687 476.918 408.638 476.918 401.178V364.266C476.918 356.805 470.866 350.757 463.4 350.757H445.834C438.368 350.757 432.316 356.805 432.316 364.266V401.178C432.316 408.638 438.368 414.687 445.834 414.687Z" fill="#F2F2F2"/>
<path d="M395.605 381.052V373.088C395.605 371.516 394.331 370.242 392.758 370.242H392.643C391.071 370.242 389.796 371.516 389.796 373.088V381.052C389.796 382.624 391.071 383.898 392.643 383.898H392.758C394.331 383.898 395.605 382.624 395.605 381.052Z" fill="white"/>
<path d="M454.66 366.566C455.879 366.548 457.085 366.823 458.177 367.363C459.268 367.904 460.217 368.702 460.937 369.682C462.166 371.35 462.854 373.353 462.909 375.419C463.028 377.019 462.932 378.627 462.629 380.203C462.304 382 461.432 383.654 460.144 384.951C459.837 385.276 459.516 385.588 459.176 385.876C458.837 386.156 458.47 386.376 458.076 386.646C458.392 387.485 458.727 388.337 459.066 389.208L453.862 393.369C453.463 392.329 453.082 391.32 452.702 390.317C452.321 389.313 452.005 388.351 451.633 387.361C451.574 387.201 451.519 387.146 451.363 387.155C450.313 387.169 449.254 387.16 448.162 387.169C448.24 390.99 448.378 394.743 448.557 398.524C446.658 398.529 441.949 398.606 441.949 398.606L442.692 366.878L454.651 366.562L454.66 366.566ZM448.171 381.01C448.236 381.019 448.295 381.024 448.36 381.024C449.896 381.024 451.427 381.037 452.954 381.024C453.445 381.01 453.935 380.95 454.417 380.845C454.839 380.767 455.242 380.602 455.6 380.364C455.957 380.126 456.265 379.819 456.498 379.457C457.044 378.517 457.278 377.431 457.173 376.35C457.191 375.506 456.897 374.682 456.347 374.04C456.049 373.728 455.691 373.481 455.293 373.316C454.894 373.151 454.467 373.069 454.036 373.082C452.243 373.041 450.391 373.05 448.552 373.055C448.506 373.055 448.456 373.064 448.401 373.069C448.304 375.722 448.236 378.348 448.181 381.005" fill="#ED1C24"/>
<path d="M457.751 399.806L459.635 398.216L463.111 395.27C463.244 395.142 463.34 395.169 463.487 395.279C464.432 395.976 465.133 396.952 465.495 398.07C465.564 398.244 465.647 398.4 465.734 398.597L465.069 399.234C464.546 399.733 464.023 400.233 463.496 400.732C463.409 400.81 463.294 400.86 463.175 400.865C462.107 400.865 461.034 400.851 459.956 400.833C459.91 400.833 459.855 400.838 459.819 400.815L457.746 399.811L457.751 399.806Z" fill="#ED1C24"/>
<path d="M459.983 391.041C460.625 391.962 461.262 392.874 461.913 393.804L456.374 398.308C455.81 397.305 455.26 396.311 454.691 395.298L459.983 391.036V391.041Z" fill="#ED1C24"/>
<path fill-rule="evenodd" clip-rule="evenodd" d="M342.716 293.665L328.868 363.29L354.074 370.118L394.012 367.456L402.265 384.928L389.752 426.257L294.437 426.642L257.516 379.993L291.86 251.919L337.507 231.815L344.018 260.259L342.716 293.665Z" fill="#CA3C27"/>
<path fill-rule="evenodd" clip-rule="evenodd" d="M344.514 260.259L310.257 270.899L274.578 312.764L291.796 252.808L329.602 235.779L344.514 260.259Z" fill="#EB6337"/>
<path fill-rule="evenodd" clip-rule="evenodd" d="M330.109 363.822L297.627 367.575L281.922 414.463L290.175 426.258L390.636 426.35L400.843 387.413L395.253 367.103L356.557 370.65L330.109 363.822Z" fill="#771213"/>
<path d="M396.439 364.798L356.56 367.044L332.185 360.894L342.777 293.014L326.269 364.913C326.224 364.276 355.735 372.364 355.735 372.364L392.537 369.999L397.98 387.266L387.328 423.925L290.623 424.223L261.071 378.399L293.732 254.852L338.934 232.829L332.9 229.516L288.23 248.615L254.211 380.058L286.162 427.477L391.537 427.949L404.138 386.794L396.448 364.798H396.439Z" fill="#2E100D"/>
<path fill-rule="evenodd" clip-rule="evenodd" d="M393.369 409.761L370.029 407.721L394.437 404.798L393.369 409.761Z" fill="#2E100D"/>
<path fill-rule="evenodd" clip-rule="evenodd" d="M398.71 389.984L373.592 387.858L399.508 384.843L398.71 389.984Z" fill="#2E100D"/>
<path d="M496.559 419.077H507.091C508.462 419.077 509.576 420.191 509.576 421.561C509.576 422.931 508.462 424.044 507.091 424.044H496.559V419.077V419.077Z" fill="#2E100D"/>
<path fill-rule="evenodd" clip-rule="evenodd" d="M411.051 195.335L428.15 206.924L445.01 203.849L457.124 205.637L465.043 197.145L447.972 191.316L426.196 198.41L411.051 195.335Z" fill="#2E100D"/>
</svg>
